<svg version="1.2" xmlns="http://www.w3.org/2000/svg" viewBox="0 0 1554 546" width="1554" height="546">
	<title>Yalla_New_logo-svg</title>
	<style>
		.s0 { fill: #00d8c9 } 
	</style>
	<g id="#ffffffff">
		<path id="Layer" fill-rule="evenodd" class="s0" d="m348.4 0.9c23.2-2.6 47.3 2.2 67.6 13.9c19.7 11.2 35.8 28.7 45.3 49.2c10.6 22.5 13.2 48.6 7.3 72.8c-5.7 23.8-19.6 45.7-38.9 60.8c-28.5 20.4-56.1 42.3-80.9 67.2c-30.5 30.7-57.2 67-69 109.1c-11.4 39.4-8.5 80.7-9.6 121.1c-1.5 21.5-16.9 41.1-37.3 47.8c-17.7 6.2-38.5 2.5-52.9-9.6c-12.5-10.2-20.2-26.2-20.1-42.4c1.3-45.1-9.6-90.5-30.9-130.2c-13.9-26.1-31.9-49.9-52.2-71.3c-16-17.1-33.9-32.4-51-48.4c-12.3-11.3-21.4-26.4-24.3-43c-4-21.3 2-44.3 16.2-60.9c14.9-17.9 38.7-27.9 62-25.9c27.2 1.8 52.4 20.3 62.4 45.6c12.5 35.8 21.9 72.6 32.1 109.2c5.7 20.7 11.4 41.4 19.2 61.5c2.9 6.6 5.3 14 10.8 19c1.8 1.8 4.9 1.4 6.1-0.8c3.5-5.2 4.6-11.6 6.1-17.6c4.6-23 7-46.4 9.7-69.7c4.8-41.5 9.1-83.2 16.2-124.4c4.1-22.7 8.5-45.6 17.3-66.9c15.1-35.7 50.2-62 88.8-66.1zm212.6 177.6c48.3-6.8 98.9 7.4 137.1 37.6c34.9 27.2 59.5 67.3 67.5 110.8c5.8 31 3.6 63.5-6.5 93.3c-4.3 12.5-9.9 25-10.6 38.4c-0.5 9 3.4 17.8 9.7 24.2c7.6 7.8 11.6 18.9 10.4 29.8c-1.3 14-11.4 26.7-24.8 31c-13 4.6-28.2 1-37.8-8.8c-4.6-4.7-9.3-10-15.9-11.9c-7.7-2.4-15.7 0.5-22.8 3.4c-11.7 5-23.3 10.1-35.7 13.1c-22.7 6.3-46.5 7.2-69.8 5.3c-32-2.3-63.6-8.5-94.3-17.6c-28.9-8.7-57.1-20.1-83.1-35.4c-18.7-11.2-36.3-24.5-50.4-41.2c-13.5-15.9-23.1-35.6-24.6-56.6c-1.8-23.6 6.3-46.9 18.2-67c16.4-27.5 39.3-50.4 64.1-70.4c33.5-26.4 71-47.7 111-62.7c18.9-7 38.4-12.4 58.3-15.3zm-4.9 75.8c-26.6 6.9-50.3 24.4-65 47.7c-13.5 21.2-19.4 47.1-16.4 72c2.4 21.2 11.2 41.6 24.8 58c26.2-10.1 50.3-25.1 71.9-43c36.3-30.3 66.5-68.7 83.6-113.1c-26.9-22.5-64.9-30.9-98.9-21.6zm117.1 40.8c-10.4 26.8-25.8 51.4-44.2 73.4c-29.8 35.2-67.3 64.6-110.4 81.6c25.8 19.3 60.3 26.4 91.6 18.7c25.6-6 48.8-21.6 64.1-43c12.9-17.8 20.2-39.5 20.8-61.4c0.8-24.7-7.1-49.5-21.9-69.3z" />
		<path id="Layer" fill-rule="evenodd" class="s0" d="m810 0.9c14.9-2.4 30.7 1.5 42.6 10.8c13.7 10.4 22 27.6 21.5 44.8c-0.4 31.9-3.8 63.7-6.8 95.5c-4 41.2-8.6 82.4-11.7 123.7c-1.7 29.1-4.5 58.8 2.3 87.4c4.8 21.1 14.6 41.8 31.2 56.1c11.7 10.1 27.1 15.9 42.7 15.8c16.5 0 32.7 8 42.9 21.1c10.4 13 14.3 30.9 10.3 47.1c-3.7 15.8-14.9 29.8-29.6 36.8c-12.8 6.3-28.1 7.3-41.6 2.7c-6.8-2.2-12.8-6-18.8-9.6c-22.3-13.4-43.5-28.8-61.4-47.7c-16.1-17-28.9-37.3-36.2-59.5c-9.7-28.5-11.1-58.8-11.2-88.5c0.2-38.5 2.2-77 0.8-115.5c-1.3-45.6-7-91.1-17.5-135.6c-2.9-12.9-7.8-25.9-5.3-39.3c3.3-23.1 22.7-42.6 45.8-46.1zm185.7 0c13-2.1 26.7 0.8 37.8 7.8c15.8 9.7 26 27.9 25.9 46.4c0 20.2-1.7 40.4-3.4 60.5c-3.3 37.8-7.4 75.4-11 113.1c-3 31.7-6 63.5-6.1 95.4c0.1 24.9 4.6 50.5 17.1 72.4c8.7 15.4 22.1 28.6 38.9 34.7c7.7 2.9 15.9 3.8 24.1 3.9c18 0.6 35.1 10.7 44.5 26c6.2 10 9.2 22 8.1 33.8c-1.3 19-13.5 36.8-30.7 45c-16.5 8.3-37 7.4-52.7-2.2c-35.9-20.7-70.8-46.3-92.2-82.5c-15.4-25.8-21.8-55.8-23.5-85.4c-2.3-37.2 0.3-74.4 0.2-111.6c0.8-62.5-5.5-125.3-21.3-185.8c-3.9-13.3-3.3-27.9 2.7-40.4c7.6-16.4 23.7-28.5 41.6-31.1zm328.5 177.7c24.9-1.4 50-3.5 74.7 0.6c52.5 8.2 100.3 40.6 127.8 85.9c27 43.6 34.1 98.5 19.7 147.6c-4.2 14.8-11.7 28.9-12.9 44.5c-0.9 9.4 2.9 18.8 9.5 25.6c9.1 9 12.9 23 9.5 35.4c-3.6 14.3-16.6 25.6-31.3 27.1c-11.7 1.5-23.9-3.2-31.7-11.9c-4.7-5.3-10.5-10.4-17.8-11.3c-9-0.9-17.3 3.4-25.4 6.7c-34.1 15.5-73.3 21.4-110 12.8c-34.8-8.1-67.1-24.1-97.2-43c-29.1-18.5-56.3-40.3-80.3-65.2c-15.7-16.4-30.2-34.1-41.8-53.6c-11.2-18.7-20.2-39.3-22.4-61.1c-1.9-17.3 1.5-35.2 10.1-50.3c9.2-16.3 23.4-29.1 38.9-39.3c22.3-14.5 47.4-24.3 72.8-31.7c35.1-10.1 71.4-15.8 107.8-18.8zm-48.2 123.5c-14.2 22.3-19.9 49.8-15.8 76c2.9 19.7 11.5 38.5 24.2 53.9c42.8-16.7 80.1-45.6 109.8-80.3c19.1-22.6 35.2-48 45.8-75.8c-22.1-18.3-51.5-27.5-80.1-24.9c-33.9 2.7-65.9 22.3-83.9 51.1zm114.3 91.5c-25.1 23.8-54.4 43.8-86.7 56.5c28.5 21.4 67.6 27.6 101.3 15.9c29.5-9.8 54.3-32.8 66.4-61.5c15.3-35.4 10.2-78.6-13.1-109.4c-14.7 37.5-38.9 70.7-67.9 98.5z" />
	</g>
</svg>